<svg width="512" height="512" xmlns="http://www.w3.org/2000/svg">
 <defs>
  <linearGradient y2="0.5" x2="1" y1="0.5" x1="0" id="SVGID_1_">
   <stop stop-color="#00F2FE" offset="0"/>
   <stop stop-color="#03EFFE" offset="0.021"/>
   <stop stop-color="#24D2FE" offset="0.293"/>
   <stop stop-color="#3CBDFE" offset="0.554"/>
   <stop stop-color="#4AB0FE" offset="0.796"/>
   <stop stop-color="#4FACFE" offset="1"/>
  </linearGradient>
 </defs>
 <g>
  <title>background</title>
  <rect fill="none" id="canvas_background" height="402" width="582" y="-1" x="-1"/>
 </g>
 <g>
  <title>Layer 1</title>
  <path id="svg_1" fill="url(#SVGID_1_)" d="m219.984,340c-5.094,0 -10.187,-1.932 -14.087,-5.803c-7.841,-7.78 -7.891,-20.443 -0.11,-28.284l45.218,-45.572l-185.806,-192.609c-11.153,-11.625 -14.267,-28.653 -7.97,-43.421c6.297,-14.769 20.741,-24.311 36.795,-24.311l283.96,0c44.112,0 80,35.888 80,80c0,11.046 -8.954,20 -20,20s-20,-8.954 -20,-20c0,-22.056 -17.944,-40 -40,-40l-283.96,0l199.354,206.652c7.55,7.827 7.463,20.253 -0.197,27.973l-59,59.462c-3.909,3.94 -9.053,5.913 -14.197,5.913zm238,92c0,-11.046 -8.954,-20 -20,-20s-20,8.954 -20,20c0,22.056 -17.944,40 -40,40l-281.959,0c0.018,-0.018 0.037,-0.039 0.06,-0.061l65.123,-65.879c7.766,-7.855 7.692,-20.518 -0.163,-28.284c-7.855,-7.765 -20.518,-7.691 -28.284,0.164l-65.063,65.818c-11.454,11.488 -14.837,28.593 -8.617,43.577c6.219,14.983 20.721,24.665 36.943,24.665l281.96,0c44.112,0 80,-35.888 80,-80z"/>
 </g>
</svg>